<svg xmlns="http://www.w3.org/2000/svg" width="32" height="32" viewBox="0 0 32 32" id="like"><g transform="translate(-252 -244)"><path style="-inkscape-stroke:none" fill-rule="evenodd" d="M255 256a1.0001 1.0001 0 00-1 1v14a1.0001 1.0001 0 001 1h4.98633a1.0001 1.0001 0 001-1v-14a1.0001 1.0001 0 00-1-1zM269.16406 248.01367a1.0001 1.0001 0 00-1.01172.45508l-5.02343 8A1.0001 1.0001 0 00262.97461 257v12c0 1.64353 1.35263 3 2.99609 3h10.80664c1.63037 0 3.04979-1.15113 3.39063-2.74609l1.73828-8.13282C282.46457 258.50849 280.44483 256 277.77539 256h-5.81836v-1.97852c.0764-.98325-.0962-2.08971-.4707-3.14062-.3831-1.07503-.96203-2.11263-1.95899-2.73047a1.0001 1.0001 0 00-.36328-.13672z" color="#000"></path></g></svg>