<svg xmlns="http://www.w3.org/2000/svg" width="32" height="32" viewBox="0 0 32 32" id="like"><g transform="translate(-252 -244)"><path style="-inkscape-stroke:none" fill-rule="evenodd" d="M255 256a1.0001 1.0001 0 00-1 1v14a1.0001 1.0001 0 001 1h4.98633a1.0001 1.0001 0 001-1v-14a1.0001 1.0001 0 00-1-1zm1 2h2.98633v12H256zM269.52734 248.15039a1.0001 1.0001 0 00-1.375.31836l-5.02343 8A1.0001 1.0001 0 00262.97461 257v12c0 1.64353 1.35263 3 2.99609 3h10.80664c1.63037 0 3.04979-1.15112 3.39063-2.74609l1.73828-8.13282C282.46457 258.50848 280.44483 256 277.77539 256h-5.81836v-2l-.004.0898c.0899-.9999-.0837-2.13395-.46679-3.20898-.3831-1.07503-.96203-2.11263-1.95899-2.73047zm-.45117 2.60742c.18505.28432.39243.41438.52735.79297.28939.8121.41178 1.75478.35742 2.35938a1.0001 1.0001 0 00-.004.0898v3a1.0001 1.0001 0 001 1h6.81836c1.43666 0 2.47782 1.28976 2.17578 2.70312l-1.73828 8.13282C278.06621 269.52232 277.47372 270 276.77734 270H265.9707c-.55961 0-.99609-.43439-.99609-1v-11.71289z" color="#000"></path></g></svg>